<svg width="2026" height="746" viewBox="0 0 2026 746" fill="none" xmlns="http://www.w3.org/2000/svg">
<g clip-path="url(#clip0_2485_139949)">
<path d="M703.289 621.595C689.851 604.609 668.9 589.639 652.103 578.457C615.943 554.383 582.898 537.213 546.921 523.893L377.177 55.2366C376.199 52.2426 372.168 40.6331 363.616 28.9015C349.812 10.0208 331.366 0 310.17 0C288.975 0 270.529 10.0208 256.725 28.9015C248.173 40.6331 244.142 52.2426 243.165 55.2366L1.1 721.803C-2.32055 731.152 2.50486 741.478 11.8503 744.9C13.866 745.633 15.9427 746 18.0195 746C23.7 746 29.0752 743.25 32.4957 738.668C33.0454 737.996 33.5952 737.262 34.0838 736.468C70.3049 675.366 121.857 624.162 183.244 588.417C246.463 551.572 318.722 532.141 392.325 532.141C425.797 532.141 458.781 536.113 490.665 543.873C500.316 546.5 509.845 549.311 518.946 552.305L549.914 638.032V638.215C550.097 638.521 562.497 671.699 571.476 694.368C581.981 720.948 601.283 738.545 625.716 744.045C630.846 745.206 636.038 745.756 641.291 745.756C660.959 745.756 680.994 737.935 696.081 723.698C711.473 709.277 719.719 690.825 719.964 670.477C720.147 653.063 714.1 635.282 703.35 621.656L703.289 621.595ZM165.103 557.193C131.814 576.563 101.151 600.148 73.9087 627.217L277.553 66.174C277.553 66.174 280.607 57.4363 286.41 49.4319C292.64 40.8164 299.481 36.0505 310.17 36.0505C320.86 36.0505 327.884 40.8776 333.992 49.4319C339.673 57.3752 342.543 65.5018 342.788 66.2351L503.492 509.9C467.454 500.796 430.134 496.03 392.264 496.03C312.308 496.03 233.758 517.171 165.042 557.193H165.103ZM671.343 697.301C660.776 707.2 646.239 711.599 633.473 708.727C620.829 705.917 610.934 696.324 604.887 680.987C596.274 659.296 584.425 627.583 583.692 625.628L563.474 569.719C586.196 580.107 608.43 592.694 632.129 608.458C646.666 618.113 664.685 630.883 674.947 643.898C684.048 655.446 690.584 679.154 671.282 697.301H671.343Z" fill="url(#paint0_linear_2485_139949)"/>
<path d="M392.263 496.03C312.308 496.03 233.757 517.171 165.041 557.193C131.752 576.563 101.089 600.148 73.847 627.217L68.4718 641.881L34.2053 736.04C70.4264 675.06 121.918 624.04 183.121 588.356C246.34 551.511 318.599 532.08 392.202 532.08C425.674 532.08 458.658 536.052 490.542 543.812C500.193 546.439 509.722 549.25 518.823 552.244L503.492 509.839C467.454 500.735 430.133 495.969 392.263 495.969V496.03Z" fill="url(#paint1_linear_2485_139949)"/>
<path d="M703.288 621.595C689.85 604.609 668.899 589.639 652.102 578.457C615.942 554.383 582.897 537.213 546.92 523.893L563.473 569.719C586.196 580.107 608.429 592.694 632.129 608.458C646.666 618.113 664.685 630.883 674.946 643.898C679.772 650.008 683.864 659.601 683.803 669.927H719.841C719.963 652.697 713.916 635.038 703.227 621.534L703.288 621.595Z" fill="url(#paint2_linear_2485_139949)"/>
<path d="M726.988 285.044H707.808L689.301 243.25H603.237L584.485 285.044H566.161L638.237 125.688H654.973L727.049 285.044H726.988ZM646.361 146.708L610.201 227.424H682.276L646.361 146.708Z" fill="#333333"/>
<path d="M866.253 217.464C866.253 229.074 864.665 239.217 861.488 247.954C858.312 256.692 853.853 264.024 848.05 269.89C842.248 275.756 835.346 280.155 827.283 283.088C819.22 286.021 810.241 287.488 800.285 287.488C790.329 287.488 781.594 286.021 773.532 283.088C765.469 280.155 758.567 275.756 752.764 269.951C746.961 264.146 742.502 256.936 739.326 248.382C736.15 239.767 734.562 229.929 734.562 218.747V126.788H752.397V217.647C752.397 234.817 756.673 248.015 765.163 257.181C773.654 266.346 785.503 270.99 800.774 270.99C816.044 270.99 826.978 266.591 835.59 257.853C844.202 249.115 848.478 236.1 848.478 218.747V126.788H866.314V217.403L866.253 217.464Z" fill="#333333"/>
<path d="M954.576 285.043H936.74V143.346H883.661V126.849H1007.72V143.346H954.637V285.043H954.576Z" fill="#333333"/>
<path d="M1166.28 237.017C1162.37 246.915 1156.88 255.592 1149.79 263.108C1142.71 270.623 1134.22 276.611 1124.26 281.072C1114.3 285.532 1103.31 287.732 1091.28 287.732C1079.24 287.732 1068.25 285.532 1058.41 281.194C1048.58 276.856 1040.09 270.929 1033 263.474C1025.92 256.02 1020.48 247.343 1016.63 237.506C1012.79 227.668 1010.89 217.22 1010.89 206.221C1010.89 195.223 1012.85 184.774 1016.76 174.937C1020.67 165.099 1026.16 156.362 1033.25 148.846C1040.33 141.33 1048.82 135.342 1058.78 130.882C1068.74 126.421 1079.73 124.222 1091.76 124.222C1103.8 124.222 1114.79 126.421 1124.63 130.76C1134.46 135.159 1142.95 141.025 1150.04 148.479C1157.12 155.934 1162.56 164.61 1166.41 174.448C1170.25 184.347 1172.15 194.734 1172.15 205.732C1172.15 216.731 1170.19 227.179 1166.28 237.017ZM1149 180.619C1145.88 172.615 1141.61 165.71 1135.99 159.844C1130.43 153.979 1123.83 149.274 1116.2 145.852C1108.56 142.43 1100.25 140.658 1091.21 140.658C1082.17 140.658 1073.87 142.369 1066.23 145.73C1058.6 149.09 1052.12 153.734 1046.69 159.6C1041.25 165.466 1037.04 172.37 1033.92 180.253C1030.81 188.135 1029.28 196.628 1029.28 205.671C1029.28 214.714 1030.81 223.208 1033.92 231.212C1037.04 239.217 1041.31 246.121 1046.93 251.987C1052.49 257.853 1059.09 262.558 1066.72 265.979C1074.36 269.462 1082.66 271.173 1091.7 271.173C1100.74 271.173 1109.05 269.462 1116.69 266.102C1124.32 262.68 1130.8 258.097 1136.23 252.17C1141.67 246.304 1145.88 239.4 1149 231.518C1152.11 223.574 1153.64 215.142 1153.64 206.099C1153.64 197.056 1152.11 188.563 1149 180.558V180.619Z" fill="#333333"/>
<path d="M1273.48 241.599H1272.56L1214.96 157.094V285.043H1197.56V126.849H1215.64L1273.24 213.186L1330.84 126.849H1348.92V285.043H1331.08V156.911L1273.48 241.66V241.599Z" fill="#333333"/>
<path d="M1527.46 285.044H1508.28L1489.77 243.25H1403.71L1384.95 285.044H1366.63L1438.71 125.688H1455.44L1527.52 285.044H1527.46ZM1446.77 146.708L1410.61 227.424H1482.68L1446.77 146.708Z" fill="#333333"/>
<path d="M1583.04 285.043H1565.2V143.346H1512.12V126.849H1636.18V143.346H1583.1V285.043H1583.04Z" fill="#333333"/>
<path d="M1673.56 126.788V284.982H1655.73V126.788H1673.56Z" fill="#333333"/>
<path d="M1855.95 237.017C1852.04 246.915 1846.54 255.592 1839.46 263.108C1832.37 270.623 1823.88 276.611 1813.93 281.072C1803.97 285.532 1792.98 287.732 1780.94 287.732C1768.91 287.732 1757.91 285.532 1748.08 281.194C1738.25 276.856 1729.76 270.929 1722.67 263.474C1715.59 256.02 1710.15 247.343 1706.3 237.506C1702.45 227.668 1700.56 217.22 1700.56 206.221C1700.56 195.223 1702.51 184.774 1706.42 174.937C1710.33 165.099 1715.83 156.362 1722.92 148.846C1730 141.33 1738.49 135.342 1748.45 130.882C1758.4 126.421 1769.4 124.222 1781.43 124.222C1793.46 124.222 1804.46 126.421 1814.29 130.76C1824.13 135.159 1832.62 141.025 1839.7 148.479C1846.79 155.934 1852.22 164.61 1856.07 174.448C1859.92 184.347 1861.81 194.734 1861.81 205.732C1861.81 216.731 1859.86 227.179 1855.95 237.017ZM1838.66 180.619C1835.55 172.615 1831.27 165.71 1825.65 159.844C1820.1 153.979 1813.5 149.274 1805.86 145.852C1798.23 142.43 1789.92 140.658 1780.88 140.658C1771.84 140.658 1763.53 142.369 1755.9 145.73C1748.26 149.09 1741.79 153.734 1736.35 159.6C1730.92 165.466 1726.7 172.37 1723.59 180.253C1720.47 188.135 1718.95 196.628 1718.95 205.671C1718.95 214.714 1720.47 223.208 1723.59 231.212C1726.7 239.217 1730.98 246.121 1736.6 251.987C1742.16 257.853 1748.75 262.558 1756.39 265.979C1764.02 269.462 1772.33 271.173 1781.37 271.173C1790.41 271.173 1798.72 269.462 1806.35 266.102C1813.99 262.68 1820.46 258.097 1825.9 252.17C1831.33 246.304 1835.55 239.4 1838.66 231.518C1841.78 223.574 1843.31 215.142 1843.31 206.099C1843.31 197.056 1841.78 188.563 1838.66 180.558V180.619Z" fill="#333333"/>
<path d="M2003.58 126.788H2020.99V284.982H2006.76L1904.63 155.262V284.982H1887.22V126.788H1903.96L2003.58 253.576V126.788Z" fill="#333333"/>
<path d="M777.38 364.966H809.447L877.247 524.321H840.904L826.428 488.821H759.544L745.068 524.321H709.58L777.38 364.966ZM813.967 458.086L792.955 406.76L771.943 458.086H813.967Z" fill="#333333"/>
<path d="M888.364 366.126H920.432L994.523 463.523V366.126H1028.85V524.32H999.226L922.631 423.746V524.32H888.303V366.126H888.364Z" fill="#333333"/>
<path d="M1099.34 461.935L1038.56 366.126H1079.24L1116.99 429.611L1155.41 366.126H1194.93L1134.15 461.263V524.32H1099.34V461.935Z" fill="#333333"/>
<path d="M1198.78 366.127H1236.04L1268.78 473.239L1304.27 365.638H1334.07L1369.56 473.239L1402.3 366.127H1438.64L1384.65 525.482H1354.35L1318.68 421.974L1283.01 525.482H1252.71L1198.72 366.127H1198.78Z" fill="#333333"/>
<path d="M1450.37 366.126H1485.19V428.756H1549.38V366.126H1584.2V524.32H1549.38V460.835H1485.19V524.32H1450.37V366.126Z" fill="#333333"/>
<path d="M1611.63 366.126H1730.67V397.105H1645.95V429.184H1720.53V460.163H1645.95V493.402H1731.83V524.381H1611.63V366.187V366.126Z" fill="#333333"/>
<path d="M1753.4 366.126H1825.72C1845.75 366.126 1861.08 371.503 1871.83 382.196C1880.87 391.239 1885.39 403.276 1885.39 418.369V418.796C1885.39 431.628 1882.28 442.015 1875.99 450.081C1869.75 458.146 1861.57 464.073 1851.49 467.8L1890.09 524.32H1849.41L1815.51 473.666H1788.15V524.32H1753.33V366.126H1753.4ZM1823.39 442.932C1832.01 442.932 1838.54 440.915 1843.18 436.822C1847.77 432.728 1850.09 427.351 1850.09 420.568V420.141C1850.09 412.625 1847.64 406.942 1842.88 403.215C1838.05 399.427 1831.33 397.533 1822.78 397.533H1788.21V442.932H1823.46H1823.39Z" fill="#333333"/>
<path d="M1905.79 366.126H2024.84V397.105H1940.12V429.184H2014.7V460.163H1940.12V493.402H2026V524.381H1905.79V366.187V366.126Z" fill="#333333"/>
<path d="M1215.21 642.371C1213.44 646.037 1210.93 649.092 1207.88 651.536C1204.83 653.98 1201.16 655.813 1197.01 657.097C1192.85 658.38 1188.39 658.991 1183.63 658.991H1166.59V686.487H1151.68V600.943H1185.4C1190.35 600.943 1194.87 601.615 1198.9 602.96C1202.93 604.304 1206.35 606.259 1209.16 608.764C1211.97 611.27 1214.11 614.325 1215.64 617.808C1217.16 621.29 1217.9 625.262 1217.9 629.662C1217.9 634.489 1216.98 638.705 1215.21 642.371ZM1197.62 618.358C1194.26 615.791 1189.8 614.508 1184.12 614.508H1166.59V645.426H1184.12C1189.86 645.426 1194.32 644.021 1197.68 641.21C1200.98 638.399 1202.63 634.672 1202.63 629.967C1202.63 624.834 1200.98 620.924 1197.62 618.358Z" fill="#333333"/>
<path d="M1306.59 686.487H1290.71L1282.03 665.834H1241.6L1232.8 686.487H1217.41L1255.03 600.332H1268.96L1306.59 686.487ZM1261.75 618.296L1247.09 652.514H1276.53L1261.75 618.296Z" fill="#333333"/>
<path d="M1346.41 686.487H1331.26V614.875H1304.14V600.943H1373.53V614.875H1346.41V686.487Z" fill="#333333"/>
<path d="M1404.32 650.436V686.487H1389.41V600.943H1404.32V636.505H1445.36V600.943H1460.27V686.487H1445.36V650.436H1404.32Z" fill="#333333"/>
<path d="M1545.78 614.508H1497.16V638.094H1540.28V651.658H1497.16V686.487H1482.26V600.943H1545.78V614.508Z" fill="#333333"/>
<path d="M1578.15 600.943V686.487H1563.25V600.943H1578.15Z" fill="#333333"/>
<path d="M1660.73 600.943H1675.64V686.487H1663.06L1616.02 625.629V686.487H1601.12V600.943H1615.05L1660.73 660.091V600.943Z" fill="#333333"/>
<path d="M1771.66 660.518C1769.46 665.773 1766.34 670.295 1762.31 674.144C1758.28 677.994 1753.46 680.988 1747.9 683.187C1742.34 685.387 1736.17 686.487 1729.51 686.487H1697.63V600.943H1729.51C1736.17 600.943 1742.34 602.043 1747.9 604.182C1753.46 606.32 1758.28 609.314 1762.31 613.164C1766.34 617.013 1769.46 621.535 1771.66 626.729C1773.86 631.922 1774.96 637.544 1774.96 643.593C1774.96 649.642 1773.86 655.263 1771.66 660.518ZM1757.06 632.106C1755.66 628.562 1753.64 625.445 1751.07 622.818C1748.51 620.191 1745.39 618.174 1741.73 616.708C1738.06 615.241 1733.97 614.508 1729.45 614.508H1712.53V672.922H1729.45C1733.97 672.922 1738 672.189 1741.73 670.783C1745.39 669.378 1748.51 667.362 1751.07 664.795C1753.64 662.229 1755.66 659.174 1757.06 655.569C1758.46 652.025 1759.2 648.114 1759.2 643.837C1759.2 639.56 1758.46 635.65 1757.06 632.106Z" fill="#333333"/>
<path d="M1856.44 614.508H1808.06V636.505H1850.94V650.07H1808.06V672.922H1857.05V686.487H1793.16V600.943H1856.44V614.508Z" fill="#333333"/>
<path d="M1929.86 686.487L1908.79 656.669H1889.91V686.487H1875.01V600.943H1913.12C1918.01 600.943 1922.41 601.554 1926.38 602.838C1930.35 604.121 1933.65 605.893 1936.39 608.215C1939.14 610.536 1941.22 613.408 1942.69 616.769C1944.15 620.13 1944.88 623.918 1944.88 628.073C1944.88 631.678 1944.4 634.855 1943.36 637.666C1942.32 640.477 1940.91 642.982 1939.14 645.12C1937.37 647.259 1935.23 649.092 1932.73 650.62C1930.22 652.147 1927.48 653.308 1924.48 654.103L1947.57 686.487H1929.86ZM1924.91 618.113C1921.8 615.73 1917.46 614.508 1911.78 614.508H1889.85V643.348H1911.9C1917.28 643.348 1921.55 642.065 1924.79 639.438C1928.03 636.811 1929.55 633.328 1929.55 628.867C1929.55 624.101 1928.03 620.557 1924.91 618.113Z" fill="#333333"/>
</g>
<defs>
<linearGradient id="paint0_linear_2485_139949" x1="0.000535285" y1="372.969" x2="719.903" y2="372.969" gradientUnits="userSpaceOnUse">
<stop stop-color="#FCDA00"/>
<stop offset="0.04" stop-color="#FACE03"/>
<stop offset="0.17" stop-color="#F6A90D"/>
<stop offset="0.31" stop-color="#F38B16"/>
<stop offset="0.45" stop-color="#F0731C"/>
<stop offset="0.61" stop-color="#EE6321"/>
<stop offset="0.78" stop-color="#ED5924"/>
<stop offset="0.99" stop-color="#ED5625"/>
<stop offset="1" stop-color="#ED5625"/>
</linearGradient>
<linearGradient id="paint1_linear_2485_139949" x1="34.2664" y1="616.035" x2="518.884" y2="616.035" gradientUnits="userSpaceOnUse">
<stop offset="0.28" stop-color="white" stop-opacity="0"/>
<stop offset="0.79" stop-color="#0A0608" stop-opacity="0.12"/>
<stop offset="0.91" stop-color="#0A0608" stop-opacity="0.23"/>
</linearGradient>
<linearGradient id="paint2_linear_2485_139949" x1="546.92" y1="596.91" x2="719.902" y2="596.91" gradientUnits="userSpaceOnUse">
<stop offset="0.11" stop-color="#0A0608" stop-opacity="0.23"/>
<stop offset="0.24" stop-color="#0A0608" stop-opacity="0.2"/>
<stop offset="0.88" stop-color="white" stop-opacity="0"/>
</linearGradient>
<clipPath id="clip0_2485_139949">
<rect width="2026" height="746" fill="white"/>
</clipPath>
</defs>
</svg>
